<svg width="24" height="24" viewBox="0 0 24 24" fill="none" xmlns="http://www.w3.org/2000/svg">
<path d="M7.17092 5.00904C7.17092 6.21744 6.19132 7.19704 4.98292 7.19704C3.77452 7.19704 2.79492 6.21744 2.79492 5.00904C2.79492 3.80065 3.77452 2.82104 4.98292 2.82104C6.19132 2.82104 7.17092 3.80065 7.17092 5.00904Z" fill="currentColor"/>
<path d="M9.23722 20.9939V8.85493H12.8552V10.5149H12.9062C13.4092 9.56193 14.6392 8.55493 16.4742 8.55493C20.2962 8.55493 21.0002 11.0679 21.0002 14.3379V20.9949H17.2292V15.0909C17.2292 13.6839 17.2052 11.8729 15.2682 11.8729C13.3042 11.8729 13.0062 13.4069 13.0062 14.9909V20.9939H9.23722Z" fill="currentColor"/>
<path d="M6.87021 8.85493H3.09521V20.9939H6.87021V8.85493Z" fill="currentColor"/>
</svg>
