<svg xmlns="http://www.w3.org/2000/svg" version="1.1" xmlns:xlink="http://www.w3.org/1999/xlink" xmlns:svgjs="http://svgjs.com/svgjs" width="1440" height="560" preserveAspectRatio="none" viewBox="0 0 1440 560">
    <g mask="url(&quot;#SvgjsMask1031&quot;)" fill="none">
        <path d="M -155.73059776672355,155 C -83.73,201.8 60.27,397 204.26940223327645,389 C 348.27,381 420.27,101.8 564.2694022332764,115 C 708.27,128.2 780.27,446 924.2694022332764,455 C 1068.27,464 1140.27,162.4 1284.2694022332764,160 C 1428.27,157.6 1613.12,451 1644.2694022332764,443 C 1675.42,435 1480.85,184.6 1440,120" stroke="rgba(49, 133, 252, 0.4)" stroke-width="2"></path>
        <path d="M -174.36181500367485,275 C -102.36,290.4 41.64,358.4 185.63818499632515,352 C 329.64,345.6 401.64,226.8 545.6381849963252,243 C 689.64,259.2 761.64,434.4 905.6381849963252,433 C 1049.64,431.6 1121.64,254 1265.6381849963252,236 C 1409.64,218 1590.77,359.8 1625.6381849963252,343 C 1660.51,326.2 1477.13,190.2 1440,152" stroke="rgba(49, 133, 252, 0.4)" stroke-width="2"></path>
        <path d="M -155.27241831071242,220 C -83.27,263.4 60.73,456.2 204.72758168928758,437 C 348.73,417.8 420.73,132.6 564.7275816892876,124 C 708.73,115.4 780.73,398.4 924.7275816892876,394 C 1068.73,389.6 1140.73,98.6 1284.7275816892875,102 C 1428.73,105.4 1613.67,380.4 1644.7275816892875,411 C 1675.78,441.6 1480.95,286.2 1440,255" stroke="rgba(49, 133, 252, 0.4)" stroke-width="2"></path>
        <path d="M -33.528713952690396,171 C 38.47,221.2 182.47,401.2 326.4712860473096,422 C 470.47,442.8 542.47,278.8 686.4712860473096,275 C 830.47,271.2 902.47,422 1046.4712860473096,403 C 1190.47,384 1262.47,201.4 1406.4712860473096,180 C 1550.47,158.6 1759.77,306.6 1766.4712860473096,296 C 1773.18,285.4 1505.29,160.8 1440,127" stroke="rgba(238, 108, 77, 0.7)" stroke-width="2"></path>
        <path d="M -329.33914592389567,346 C -257.34,306.2 -113.34,157 30.6608540761043,147 C 174.66,137 246.66,297 390.66085407610433,296 C 534.66,295 606.66,137.8 750.6608540761043,142 C 894.66,146.2 966.66,324.4 1110.6608540761042,317 C 1254.66,309.6 1404.79,79.6 1470.6608540761042,105 C 1536.53,130.4 1446.13,376.2 1440,444" stroke="rgba(238, 108, 77, 0.7)" stroke-width="2"></path>
        <path d="M -99.76873949701758,142 C -27.77,192.4 116.23,371.2 260.2312605029824,394 C 404.23,416.8 476.23,253.4 620.2312605029824,256 C 764.23,258.6 836.23,413.2 980.2312605029824,407 C 1124.23,400.8 1196.23,214.6 1340.2312605029824,225 C 1484.23,235.4 1680.28,466 1700.2312605029824,459 C 1720.19,452 1492.05,243.8 1440,190" stroke="rgba(238, 108, 77, 0.7)" stroke-width="2"></path>
    </g>
    <defs>
        <mask id="SvgjsMask1031">
            <rect width="1440" height="560" fill="#ffffff"></rect>
        </mask>
    </defs>
</svg>