<?xml version="1.0" encoding="utf-8"?>
<!-- Generator: Adobe Illustrator 25.3.0, SVG Export Plug-In . SVG Version: 6.00 Build 0)  -->
<svg version="1.1" id="Calque_1" xmlns="http://www.w3.org/2000/svg" xmlns:xlink="http://www.w3.org/1999/xlink" x="0px" y="0px"
	 viewBox="0 0 1000 1000" style="enable-background:new 0 0 1000 1000;" xml:space="preserve">
<style type="text/css">
	.st0{opacity:0.2;}
	.st1{clip-path:url(#SVGID_2_);fill:url(#SVGID_3_);}
	.st2{opacity:0.3;}
	.st3{clip-path:url(#SVGID_5_);fill:url(#SVGID_6_);}
	.st4{opacity:0.4;}
	.st5{clip-path:url(#SVGID_8_);fill:url(#SVGID_9_);}
	.st6{opacity:0.5;}
	.st7{clip-path:url(#SVGID_11_);fill:url(#SVGID_12_);}
	.st8{opacity:0.6;}
	.st9{clip-path:url(#SVGID_14_);fill:url(#SVGID_15_);}
	.st10{opacity:0.7;}
	.st11{clip-path:url(#SVGID_17_);fill:url(#SVGID_18_);}
</style>
<g class="st0">
	<defs>
		<path id="SVGID_1_" class="st0" d="M382.8,881.5c-69.7,0-133.1-47.4-150.5-118L123,319.8c-9.9-40.2-3.5-81.9,17.9-117.3
			c21.4-35.4,55.4-60.4,95.6-70.3L680.2,23c83-20.4,167.1,30.5,187.6,113.4L977,580.2c20.4,83-30.5,167.1-113.4,187.6L419.8,877
			C407.4,880,395,881.5,382.8,881.5z M717.2,28.5c-11.4,0-23.1,1.4-34.7,4.2L238.9,142c-37.6,9.3-69.4,32.6-89.4,65.8
			s-26,72.1-16.7,109.7L242,761.1c19.1,77.6,97.8,125.2,175.5,106.1L861.1,758l1.2,4.9l-1.2-4.9c77.6-19.1,125.2-97.8,106.1-175.5
			L858,138.9C841.8,72.8,782.4,28.5,717.2,28.5z"/>
	</defs>
	<clipPath id="SVGID_2_">
		<use xlink:href="#SVGID_1_"  style="overflow:visible;"/>
	</clipPath>
	<linearGradient id="SVGID_3_" gradientUnits="userSpaceOnUse" x1="-9.094947e-13" y1="1000" x2="1000" y2="-1.477929e-12">
		<stop  offset="0" style="stop-color:#FF6B35"/>
		<stop  offset="0.3296" style="stop-color:#F66E66"/>
		<stop  offset="0.7841" style="stop-color:#EB71A4"/>
		<stop  offset="1" style="stop-color:#E672BD"/>
	</linearGradient>
	<rect class="st1" width="1000" height="1000"/>
</g>
<g class="st2">
	<defs>
		<path id="SVGID_4_" class="st2" d="M362.8,901.5c-69.7,0-133.1-47.4-150.5-118L103,339.8c-9.9-40.2-3.5-81.9,17.9-117.3
			c21.4-35.4,55.4-60.4,95.6-70.3L660.2,43c83-20.4,167.1,30.5,187.6,113.4L957,600.2c20.4,83-30.5,167.1-113.4,187.6L399.8,897
			C387.4,900,375,901.5,362.8,901.5z M697.2,48.5c-11.4,0-23.1,1.4-34.7,4.2L218.9,162c-37.6,9.3-69.4,32.6-89.4,65.8
			s-26,72.1-16.7,109.7L222,781.1c19.1,77.6,97.8,125.2,175.5,106.1L841.1,778l1.2,4.9l-1.2-4.9c77.6-19.1,125.2-97.8,106.1-175.5
			L838,158.9C821.8,92.8,762.4,48.5,697.2,48.5z"/>
	</defs>
	<clipPath id="SVGID_5_">
		<use xlink:href="#SVGID_4_"  style="overflow:visible;"/>
	</clipPath>
	<linearGradient id="SVGID_6_" gradientUnits="userSpaceOnUse" x1="-9.094947e-13" y1="1000" x2="1000" y2="-1.477929e-12">
		<stop  offset="0" style="stop-color:#FF6B35"/>
		<stop  offset="0.3296" style="stop-color:#F66E66"/>
		<stop  offset="0.7841" style="stop-color:#EB71A4"/>
		<stop  offset="1" style="stop-color:#E672BD"/>
	</linearGradient>
	<rect class="st3" width="1000" height="1000"/>
</g>
<g class="st4">
	<defs>
		<path id="SVGID_7_" class="st4" d="M342.8,921.5c-69.7,0-133.1-47.4-150.5-118L83,359.8c-9.9-40.2-3.5-81.9,17.9-117.3
			c21.4-35.4,55.4-60.4,95.6-70.3L640.2,63c83-20.4,167.1,30.5,187.6,113.4L937,620.2c20.4,83-30.5,167.1-113.4,187.6L379.8,917
			C367.4,920,355,921.5,342.8,921.5z M677.2,68.5c-11.4,0-23.1,1.4-34.7,4.2L198.9,182c-37.6,9.3-69.4,32.6-89.4,65.8
			s-26,72.1-16.7,109.7L202,801.1c19.1,77.6,97.8,125.2,175.5,106.1L821.1,798l1.2,4.9l-1.2-4.9c77.6-19.1,125.2-97.8,106.1-175.5
			L818,178.9C801.8,112.8,742.4,68.5,677.2,68.5z"/>
	</defs>
	<clipPath id="SVGID_8_">
		<use xlink:href="#SVGID_7_"  style="overflow:visible;"/>
	</clipPath>
	<linearGradient id="SVGID_9_" gradientUnits="userSpaceOnUse" x1="-9.094947e-13" y1="1000" x2="1000" y2="-1.477929e-12">
		<stop  offset="0" style="stop-color:#FF6B35"/>
		<stop  offset="0.3296" style="stop-color:#F66E66"/>
		<stop  offset="0.7841" style="stop-color:#EB71A4"/>
		<stop  offset="1" style="stop-color:#E672BD"/>
	</linearGradient>
	<rect class="st5" width="1000" height="1000"/>
</g>
<g class="st6">
	<defs>
		<path id="SVGID_10_" class="st6" d="M322.8,941.5c-69.7,0-133.1-47.4-150.5-118L63,379.8c-9.9-40.2-3.5-81.9,17.9-117.3
			c21.4-35.4,55.4-60.4,95.6-70.3L620.2,83c83-20.4,167.1,30.5,187.6,113.4L917,640.2c20.4,83-30.5,167.1-113.4,187.6L359.8,937
			C347.4,940,335,941.5,322.8,941.5z M657.2,88.5c-11.4,0-23.1,1.4-34.7,4.2L178.9,202c-37.6,9.3-69.4,32.6-89.4,65.8
			s-26,72.1-16.7,109.7L182,821.1c19.1,77.6,97.8,125.2,175.5,106.1L801.1,818l1.2,4.9l-1.2-4.9c77.6-19.1,125.2-97.8,106.1-175.5
			L798,198.9C781.8,132.8,722.4,88.5,657.2,88.5z"/>
	</defs>
	<clipPath id="SVGID_11_">
		<use xlink:href="#SVGID_10_"  style="overflow:visible;"/>
	</clipPath>
	<linearGradient id="SVGID_12_" gradientUnits="userSpaceOnUse" x1="-9.094947e-13" y1="1000" x2="1000" y2="-1.477929e-12">
		<stop  offset="0" style="stop-color:#FF6B35"/>
		<stop  offset="0.3296" style="stop-color:#F66E66"/>
		<stop  offset="0.7841" style="stop-color:#EB71A4"/>
		<stop  offset="1" style="stop-color:#E672BD"/>
	</linearGradient>
	<rect class="st7" width="1000" height="1000"/>
</g>
<g class="st8">
	<defs>
		<path id="SVGID_13_" class="st8" d="M302.8,961.5c-69.7,0-133.1-47.4-150.5-118L43,399.8c-9.9-40.2-3.5-81.9,17.9-117.3
			c21.4-35.4,55.4-60.4,95.6-70.3L600.2,103c83-20.4,167.1,30.5,187.6,113.4L897,660.2c20.4,83-30.5,167.1-113.4,187.6L339.8,957
			C327.4,960,315,961.5,302.8,961.5z M637.2,108.5c-11.4,0-23.1,1.4-34.7,4.2L158.9,222c-37.6,9.3-69.4,32.6-89.4,65.8
			s-26,72.1-16.7,109.7L162,841.1c19.1,77.6,97.8,125.2,175.5,106.1L781.1,838l1.2,4.9l-1.2-4.9c77.6-19.1,125.2-97.8,106.1-175.5
			L778,218.9C761.8,152.8,702.4,108.5,637.2,108.5z"/>
	</defs>
	<clipPath id="SVGID_14_">
		<use xlink:href="#SVGID_13_"  style="overflow:visible;"/>
	</clipPath>
	<linearGradient id="SVGID_15_" gradientUnits="userSpaceOnUse" x1="-9.094947e-13" y1="1000" x2="1000" y2="-1.477929e-12">
		<stop  offset="0" style="stop-color:#FF6B35"/>
		<stop  offset="0.3296" style="stop-color:#F66E66"/>
		<stop  offset="0.7841" style="stop-color:#EB71A4"/>
		<stop  offset="1" style="stop-color:#E672BD"/>
	</linearGradient>
	<rect class="st9" width="1000" height="1000"/>
</g>
<g class="st10">
	<defs>
		<path id="SVGID_16_" class="st10" d="M282.8,981.5c-69.7,0-133.1-47.4-150.5-118L23,419.8c-9.9-40.2-3.5-81.9,17.9-117.3
			c21.4-35.4,55.4-60.4,95.6-70.3L580.2,123c83-20.4,167.1,30.5,187.6,113.4L877,680.2c20.4,83-30.5,167.1-113.4,187.6L319.8,977
			C307.4,980,295,981.5,282.8,981.5z M617.2,128.5c-11.4,0-23.1,1.4-34.7,4.2L138.9,242c-37.6,9.3-69.4,32.6-89.4,65.8
			s-26,72.1-16.7,109.7L142,861.1c19.1,77.6,97.8,125.2,175.5,106.1L761.1,858l1.2,4.9l-1.2-4.9c77.6-19.1,125.2-97.8,106.1-175.5
			L758,238.9C741.8,172.8,682.4,128.5,617.2,128.5z"/>
	</defs>
	<clipPath id="SVGID_17_">
		<use xlink:href="#SVGID_16_"  style="overflow:visible;"/>
	</clipPath>
	<linearGradient id="SVGID_18_" gradientUnits="userSpaceOnUse" x1="-9.094947e-13" y1="1000" x2="1000" y2="-1.477929e-12">
		<stop  offset="0" style="stop-color:#FF6B35"/>
		<stop  offset="0.3296" style="stop-color:#F66E66"/>
		<stop  offset="0.7841" style="stop-color:#EB71A4"/>
		<stop  offset="1" style="stop-color:#E672BD"/>
	</linearGradient>
	<rect class="st11" width="1000" height="1000"/>
</g>
</svg>
